# xmcd
#
# Track frame offsets: 
#        150
#        12057
#        30223
#        47034
#        67103
#        78058
#        98207
#        114309
#        128982
#        147244
#        164641
#        173517
#
# Disc length: 2587 seconds
#
# Revision: 0
# Processed by: cddbd v1.5.2PL0 Copyright (c) Steve Scherf et al.
# Submitted via: ExactAudioCopyFreeDBPlugin 1.0
#
DISCID=900a190c
DTITLE=Dennis Ellsworth - Hazy Sunshine
DYEAR=2013
DGENRE=Country
TTITLE0=Things I Want
TTITLE1=Coke Machine Glow
TTITLE2=Let It All Out
TTITLE3=If I Find the Truth
TTITLE4=Rudderless Day
TTITLE5=Hazy Sunshine
TTITLE6=Everything's Fine
TTITLE7=Paradise
TTITLE8=Harry Nilsson's Heart
TTITLE9=Silver Tears
TTITLE10=Happiness
TTITLE11=Can't Turn to You
EXTD=
EXTT0=
EXTT1=
EXTT2=
EXTT3=
EXTT4=
EXTT5=
EXTT6=
EXTT7=
EXTT8=
EXTT9=
EXTT10=
EXTT11=
PLAYORDER=
